<svg height="451pt" viewBox="0 0 451.10229 451" width="451pt" xmlns="http://www.w3.org/2000/svg"><path d="m64.816406 22.40625c-1.945312 23.125-26.046875 26.777344-26.046875 26.777344 20.695313.972656 25.851563 28.117187 25.851563 28.117187.441406-19.351562 26.640625-28.402343 26.640625-28.402343-19.625-1.175782-26.445313-26.492188-26.445313-26.492188zm0 0" fill="#d7e057"/><path d="m91.441406 45.902344c-17.207031-1.027344-23.664062-24.046875-23.726562-24.28125-.382813-1.402344-1.703125-2.335938-3.167969-2.203125-1.449219.132812-2.597656 1.285156-2.71875 2.734375-1.71875 20.429687-22.625 23.929687-23.507813 24.066406-1.527343.230469-2.625 1.582031-2.546874 3.121094.082031 1.542968 1.316406 2.769531 2.855468 2.84375 18.058594.851562 23 25.4375 23.046875 25.683594.273438 1.421874 1.519531 2.433593 2.945313 2.433593.082031 0 .167968 0 .25-.007812 1.53125-.128907 2.714844-1.386719 2.75-2.917969.386718-17.019531 24.382812-25.554688 24.628906-25.640625 1.351562-.46875 2.183594-1.828125 1.984375-3.246094-.195313-1.417969-1.363281-2.5-2.792969-2.585937zm-27.132812 20.691406c-2.710938-6.261719-7.417969-13.8125-15.171875-17.753906 5.863281-2.808594 12.816406-7.824219 16.402343-16.542969 3.101563 6.140625 8.398438 13.757813 16.667969 17.445313-6.015625 3.277343-13.84375 8.808593-17.898437 16.851562zm0 0" fill="#3a312a"/><path d="m21.421875 56.367188c-1.378906 16.355468-18.425781 18.9375-18.425781 18.9375 14.636718.6875 18.285156 19.886718 18.285156 19.886718.3125-13.6875 18.84375-20.085937 18.84375-20.085937-13.882812-.832031-18.703125-18.738281-18.703125-18.738281zm0 0" fill="#d7e057"/><path d="m40.304688 72.109375c-11.53125-.691406-15.945313-16.371094-15.988282-16.53125-.378906-1.402344-1.71875-2.324219-3.164062-2.203125-1.449219.128906-2.597656 1.285156-2.71875 2.738281-1.15625 13.738281-15.292969 16.132813-15.882813 16.226563-1.527343.230468-2.628906 1.578125-2.54687475 3.121094.08203125 1.539062 1.31249975 2.769531 2.85546875 2.84375 12.070313.566406 15.445313 17.285156 15.476563 17.449218.273437 1.425782 1.519531 2.441406 2.945312 2.441406.082031 0 .167969-.003906.25-.011718 1.53125-.125 2.71875-1.386719 2.753906-2.921875.257813-11.417969 16.660156-17.265625 16.824219-17.320313 1.351563-.46875 2.183594-1.824218 1.992187-3.242187-.199218-1.417969-1.371093-2.503907-2.796874-2.589844zm-19.171876 13.589844c-1.847656-3.773438-4.679687-7.894531-8.890624-10.558594 3.710937-2.082031 7.394531-5.257813 9.738281-9.832031 2.117187 3.746094 5.308593 7.90625 9.882812 10.445312-3.695312 2.203125-7.976562 5.480469-10.730469 9.945313zm0 0" fill="#3a312a"/><path d="m21.421875 3.050781c-1.378906 16.355469-18.425781 18.941407-18.425781 18.941407 14.636718.6875 18.285156 19.886718 18.285156 19.886718.3125-13.6875 18.84375-20.089844 18.84375-20.089844-13.882812-.828124-18.703125-18.738281-18.703125-18.738281zm0 0" fill="#d7e057"/><path d="m40.304688 18.796875c-11.53125-.691406-15.945313-16.375-15.988282-16.53125-.378906-1.402344-1.71875-2.3242188-3.164062-2.203125-1.449219.128906-2.597656 1.285156-2.71875 2.734375-1.15625 13.742187-15.292969 16.132813-15.882813 16.226563-1.527343.230468-2.628906 1.582031-2.54687475 3.125.08203125 1.539062 1.31249975 2.765624 2.85546875 2.839843 12.070313.570313 15.445313 17.289063 15.476563 17.453125.273437 1.425782 1.519531 2.441406 2.945312 2.441406.082031 0 .167969-.003906.25-.011718 1.53125-.125 2.71875-1.386719 2.753906-2.921875.257813-11.417969 16.660156-17.269531 16.824219-17.324219 1.351563-.46875 2.183594-1.824219 1.992187-3.242188-.199218-1.417968-1.371093-2.5-2.796874-2.585937zm-19.171876 13.585937c-1.847656-3.769531-4.679687-7.894531-8.890624-10.558593 3.710937-2.082031 7.394531-5.257813 9.738281-9.832031 2.117187 3.746093 5.308593 7.90625 9.882812 10.445312-3.695312 2.203125-7.976562 5.480469-10.730469 9.945312zm0 0" fill="#3a312a"/><path d="m356.226562 79.335938c-41.113281-14.164063-103.46875-.519532-130.121093 37.21875-26.65625-37.738282-89.011719-51.382813-130.125-37.21875-52.289063 18.015624-80.167969 73.179687-75.015625 126.507812 1.207031 12.53125 4.0625 25.058594 8.25 37.460938 2.113281 6.207031 4.542968 12.398437 7.285156 18.535156 7.632812 17.179687 17.644531 34.011718 29.082031 50.121094l18.621094 23.367187 19.074219 22.257813c22.496094 23.90625 46.644531 44.878906 68.402344 61.308593 14.089843 10.621094 35.050781 28.640625 54.03125 29.027344.058593.019531.09375.039063.132812.039063h.519531c.035157 0 .074219-.019532.128907-.039063 18.980468-.386719 39.964843-18.40625 54.03125-29.027344 47.804687-36.089843 107.121093-94.011719 135.183593-157.054687 2.742188-6.132813 5.1875-12.304688 7.265625-18.535156 4.207032-12.398438 7.0625-24.910157 8.269532-37.460938 5.152343-53.328125-22.726563-108.492188-75.015626-126.507812zm0 0" fill="#f16c7a" fill-rule="evenodd"/><path d="m417.882812 127.871094c-14.023437-24.761719-35.003906-42.527344-60.679687-51.371094-39.371094-13.5625-101.714844-2.3125-131.101563 35.042969-29.382812-37.355469-91.722656-48.605469-131.097656-35.042969-25.671875 8.84375-46.660156 26.609375-60.679687 51.371094-13.171875 23.25-18.972657 51.042968-16.34375 78.261718 1.1875 12.332032 4.011719 25.160157 8.394531 38.136719 2.152344 6.328125 4.636719 12.652344 7.382812 18.789063 7.300782 16.429687 17.183594 33.464844 29.476563 50.773437l18.621094 23.367188c1.03125 1.292969 2.917969 1.507812 4.210937.472656 1.296875-1.03125 1.511719-2.917969.476563-4.214844l-18.519531-23.230469c-11.964844-16.851562-21.648438-33.542968-28.792969-49.609374-2.671875-5.976563-5.089844-12.128907-7.179688-18.273438-4.234375-12.539062-6.960937-24.914062-8.105469-36.789062-2.511718-26.003907 3.027344-52.542969 15.589844-74.730469 13.292969-23.46875 33.148438-40.292969 57.417969-48.65625 38.5-13.261719 99.996094-1.6875 126.691406 36.117187 1.128907 1.589844 3.78125 1.589844 4.902344 0 26.703125-37.804687 88.203125-49.371094 126.699219-36.117187 24.269531 8.367187 44.121094 25.1875 57.414062 48.65625 12.5625 22.1875 18.101563 48.726562 15.589844 74.730469-1.140625 11.882812-3.875 24.261718-8.125 36.796874-1.953125 5.859376-4.363281 12.003907-7.160156 18.265626-8.578125 19.269531-43.609375 87.453124-134.25 155.878906-1.609375 1.214844-3.300782 2.519531-5.074219 3.890625-13.242187 10.214843-31.375 24.207031-47.210937 24.535156-.101563 0-.210938.007813-.316407.027344-.113281-.015625-.226562-.027344-.339843-.027344-15.808594-.328125-33.917969-14.289063-47.140626-24.484375-1.796874-1.386719-3.519531-2.710938-5.144531-3.9375-16.792969-12.683594-42.226562-33.554688-68.027343-60.972656-1.136719-1.207032-3.035157-1.261719-4.242188-.128906-1.207031 1.136718-1.265625 3.035156-.128906 4.242187 26.089844 27.722656 51.800781 48.828125 68.78125 61.648437 1.613281 1.214844 3.316406 2.53125 5.097656 3.902344 13.804688 10.640625 32.675781 25.195313 50.375 25.71875.171875.03125.34375.046875.5.046875h.519531c.140625 0 .304688-.015625.472657-.042969 17.730468-.511718 36.640624-15.105468 50.472656-25.777343 1.753906-1.351563 3.433594-2.648438 5.023437-3.847657 29.742188-22.453124 102.542969-82.820312 136.113281-158.226562 2.878907-6.433594 5.359376-12.761719 7.371094-18.796875 4.394532-12.957031 7.226563-25.789063 8.410156-38.132813 2.628907-27.21875-3.171874-55.011718-16.34375-78.261718zm0 0" fill="#3a312a"/><path d="m370.15625 243.304688-21.613281-47.414063c-1.5-3.28125-4.78125-5.394531-8.394531-5.414063-3.632813 0-6.894532 2.078126-8.433594 5.339844l-48.066406 102.910156-33.53125-65.226562c-1.519532-2.949219-4.503907-4.855469-7.820313-5.003906-3.335937-.148438-6.449219 1.464844-8.25 4.261718l-43.132813 67.695313-32.902343-102.617187c-1.113281-3.445313-4.132813-5.949219-7.730469-6.375-3.59375-.425782-7.136719 1.296874-9.007812 4.414062l-28.804688 47.429688h-83.246094c2.117188 6.210937 4.542969 12.402343 7.285156 18.535156h81.171876c3.242187 0 6.246093-1.6875 7.914062-4.464844l20.960938-34.535156 32.734374 102.078125c1.09375 3.410156 4.078126 5.894531 7.636719 6.359375.390625.054687.796875.074218 1.1875.074218 3.132813 0 6.097657-1.59375 7.820313-4.28125l45.082031-70.734374 34.773437 67.675781c1.609376 3.132812 4.800782 5.078125 8.414063 5.023437 3.542969-.074218 6.730469-2.152344 8.230469-5.339844l17.257812-36.9375 12.597656-26.960937 17.726563-37.941406 15.757813 34.570312c1.5 3.300781 4.800781 5.414063 8.433593 5.414063h51.507813c2.746094-6.132813 5.191406-12.304688 7.265625-18.535156zm0 0" fill="#d7e057"/><path d="m425.417969 241.550781c-.5625-.78125-1.46875-1.246093-2.433594-1.246093h-50.898437l-20.8125-45.660157c-1.980469-4.328125-6.339844-7.140625-11.128907-7.167969-4.746093 0-9.125 2.769532-11.148437 7.070313l-45.476563 97.367187-30.734375-59.789062c-2.007812-3.890625-5.976562-6.429688-10.355468-6.625-4.445313-.203125-8.507813 1.910156-10.910157 5.648438l-39.703125 62.300781-30.949218-96.535157c-1.472657-4.558593-5.488282-7.871093-10.230469-8.433593-4.789063-.566407-9.457031 1.730469-11.929688 5.832031l-27.925781 45.992188h-81.558594c-.964844 0-1.875.464843-2.4375 1.253906-.5625.785156-.714844 1.796875-.402344 2.710937 2.152344 6.328125 4.640626 12.652344 7.386719 18.796875.484375 1.078125 1.554688 1.773438 2.738281 1.773438h81.167969c4.277344 0 8.292969-2.269532 10.480469-5.910156l17.550781-28.910157 30.722657 95.8125c1.445312 4.5 5.410156 7.804688 10.070312 8.414063.53125.074218 1.082031.101562 1.613281.101562 4.203125 0 8.070313-2.113281 10.351563-5.667968l42.269531-66.328126 32.382813 63.03125c2.152343 4.171876 6.398437 6.675782 11.148437 6.648438 4.707031-.097656 8.875-2.800781 10.882813-7.066406l17.261718-36.941406c.699219-1.5.050782-3.285157-1.453125-3.984376-1.5-.707031-3.285156-.054687-3.988281 1.445313l-17.25 36.929687c-1.015625 2.148438-3.203125 3.570313-5.566406 3.617188-2.476563.050781-4.585938-1.230469-5.699219-3.394531l-34.773437-67.671875c-.492188-.957032-1.457032-1.578125-2.53125-1.628906-1.066407-.027344-2.089844.480468-2.667969 1.386718l-45.074219 70.726563c-1.164062 1.816406-3.144531 2.898437-5.296875 2.898437-.25 0-.511719-.007812-.796875-.046875-2.402344-.3125-4.433594-2-5.167969-4.300781l-32.730469-102.074219c-.359374-1.121093-1.335937-1.925781-2.503906-2.0625-1.15625-.132812-2.304687.417969-2.917968 1.421875l-20.96875 34.542969c-1.117188 1.855469-3.164063 3.011719-5.34375 3.011719h-79.214844c-1.796875-4.125-3.472656-8.320313-5.007813-12.535156h79.011719c1.046875 0 2.019531-.546876 2.5625-1.441407l28.8125-47.449219c1.261719-2.097656 3.625-3.265624 6.085938-2.976562 2.421874.289062 4.472656 1.980469 5.222656 4.3125l32.902344 102.617188c.355468 1.109374 1.316406 1.910156 2.472656 2.058593 1.15625.15625 2.289062-.382812 2.914062-1.363281l43.125-67.683594c1.230469-1.910156 3.296875-2.992187 5.59375-2.886718 2.238282.097656 4.265625 1.394531 5.289063 3.378906l33.53125 65.226562c.523437 1.019532 1.59375 1.664063 2.722656 1.628906 1.144531-.023437 2.179687-.691406 2.664063-1.730468l48.058593-102.902344c1.050781-2.230469 3.246094-3.617188 5.703125-3.617188 2.445313.011719 4.675782 1.449219 5.683594 3.65625l21.613281 47.417969c.488281 1.070313 1.554688 1.753907 2.730469 1.753907h48.613281c-1.472656 4.085937-3.148437 8.28125-5.003906 12.535156h-49.558594c-2.453125 0-4.691406-1.433594-5.703125-3.65625l-15.753906-34.570313c-.488281-1.0625-1.546875-1.75-2.71875-1.757812-1.164062-.082031-2.234375.671875-2.730469 1.730469l-17.726562 37.9375c-.703125 1.5-.050781 3.285156 1.449219 3.988281 1.496093.703125 3.285156.050781 3.988281-1.449219l14.972656-32.046875 13.058594 28.65625c1.980469 4.355469 6.367187 7.167969 11.164062 7.167969h51.511719c1.183594 0 2.253906-.695313 2.738281-1.773438 2.875-6.429687 5.355469-12.761718 7.375-18.8125.300781-.914062.148438-1.921875-.414062-2.703125zm0 0" fill="#3a312a"/><path d="m448.105469 83.964844c0 44.183594-35.820313 80-80 80-44.183594 0-80-35.816406-80-80s35.816406-80 80-80c44.179687 0 80 35.816406 80 80zm0 0" fill="#fce8cb"/><path d="m368.101562.964844c-45.765624 0-83 37.234375-83 83s37.234376 83 83 83c45.765626 0 83-37.234375 83-83s-37.234374-83-83-83zm0 160c-42.457031 0-77-34.542969-77-77 0-42.457032 34.542969-77 77-77 42.457032 0 77 34.542968 77 77 0 42.457031-34.542968 77-77 77zm0 0" fill="#3a312a"/><path d="m368.292969 81.394531c-15.257813 0-27.625 15.019531-27.625 27.6875 0 12.664063 12.367187 14.875 27.625 14.875 15.257812 0 27.628906-2.210937 27.628906-14.875 0-12.667969-12.371094-27.6875-27.628906-27.6875zm0 0" fill="#87796f"/><path d="m368.292969 78.394531c-14.164063 0-30.625 13.40625-30.625 30.6875 0 17.875 20.6875 17.875 30.625 17.875 9.941406 0 30.628906 0 30.628906-17.875 0-17.28125-16.464844-30.6875-30.628906-30.6875zm0 42.5625c-17.71875 0-24.625-3.328125-24.625-11.875 0-13.675781 13.472656-24.6875 24.625-24.6875 11.15625 0 24.628906 11.011719 24.628906 24.6875 0 8.546875-6.90625 11.875-24.628906 11.875zm0 0" fill="#3a312a"/><path d="m368.292969 43.972656c-5.976563 0-10.820313 6.214844-10.820313 13.886719 0 7.667969 4.84375 13.886719 10.820313 13.886719 5.976562 0 10.820312-6.214844 10.820312-13.886719s-4.84375-13.886719-10.820312-13.886719zm0 0" fill="#87796f"/><path d="m368.292969 40.972656c-7.621094 0-13.820313 7.574219-13.820313 16.882813 0 9.3125 6.203125 16.886719 13.820313 16.886719 7.621093 0 13.820312-7.574219 13.820312-16.886719 0-9.308594-6.195312-16.882813-13.820312-16.882813zm0 27.769532c-4.238281 0-7.820313-4.984376-7.820313-10.886719 0-5.898438 3.582032-10.882813 7.820313-10.882813s7.820312 4.984375 7.820312 10.882813c0 5.902343-3.582031 10.886719-7.820312 10.886719zm0 0" fill="#3a312a"/><path d="m347.066406 63.800781c-3.582031-6.78125-10.769531-10.011719-16.054687-7.222656-5.285157 2.792969-6.660157 10.550781-3.078125 17.332031 3.582031 6.78125 10.769531 10.015625 16.050781 7.226563 3.132813-1.65625 4.890625-5.050781 5.0625-8.957031.117187-2.6875-.519531-5.613282-1.980469-8.378907zm0 0" fill="#87796f"/><path d="m349.71875 62.402344c-2.042969-3.867188-5.171875-6.898438-8.808594-8.535156-3.894531-1.753907-7.90625-1.734376-11.296875.058593s-5.671875 5.09375-6.417969 9.296875c-.699218 3.929688.039063 8.21875 2.085938 12.089844 3.242188 6.136719 9.078125 9.808594 14.628906 9.808594 1.894532 0 3.761719-.429688 5.476563-1.335938 3.945312-2.082031 6.433593-6.375 6.65625-11.472656.144531-3.332031-.660157-6.761719-2.324219-9.910156zm-7.132812 16.078125c-3.746094 1.980469-9.242188-.753907-12-5.972657-1.421876-2.691406-1.953126-5.613281-1.484376-8.234374.417969-2.34375 1.59375-4.132813 3.316407-5.042969.824219-.4375 1.75-.65625 2.726562-.65625 1.058594 0 2.175781.253906 3.300781.761719 2.425782 1.089843 4.546876 3.171874 5.96875 5.867187 1.167969 2.207031 1.730469 4.578125 1.628907 6.84375-.125 2.996094-1.386719 5.339844-3.457031 6.433594zm0 0" fill="#3a312a"/><path d="m324.796875 84.4375c-6.105469-4.636719-13.984375-4.542969-17.601563.214844-3.613281 4.757812-1.59375 12.378906 4.511719 17.015625 6.105469 4.640625 13.984375 4.546875 17.601563-.210938 3.613281-4.761719 1.59375-12.378906-4.511719-17.019531zm0 0" fill="#87796f"/><path d="m326.613281 82.050781c-3.480469-2.648437-7.511719-4.082031-11.585937-4.03125-4.269532.054688-7.898438 1.765625-10.21875 4.816407-2.320313 3.054687-3 7.007812-1.90625 11.136718 1.027344 3.855469 3.507812 7.4375 6.988281 10.085938 3.527344 2.675781 7.585937 4.003906 11.375 4.003906 4.175781 0 8.015625-1.609375 10.433594-4.792969 4.605469-6.066406 2.328125-15.585937-5.085938-21.21875zm.308594 17.589844c-2.566406 3.375-8.707031 3.207031-13.402344-.359375-2.421875-1.84375-4.132812-4.273438-4.8125-6.84375-.609375-2.300781-.296875-4.421875.878907-5.96875 1.175781-1.546875 3.132812-2.417969 5.515624-2.445312h.125c2.625 0 5.375.992187 7.757813 2.804687 4.695313 3.570313 6.5 9.433594 3.9375 12.8125zm0 0" fill="#3a312a"/><path d="m405.746094 56.578125c-5.285156-2.789063-12.472656.441406-16.054688 7.222656-3.582031 6.78125-2.203125 14.539063 3.082032 17.332031 5.28125 2.792969 12.46875-.441406 16.054687-7.222656 3.582031-6.777344 2.199219-14.539062-3.082031-17.332031zm0 0" fill="#87796f"/><path d="m413.5625 63.222656c-.746094-4.203125-3.023438-7.503906-6.414062-9.296875-3.394532-1.789062-7.402344-1.8125-11.296876-.058593-3.636718 1.632812-6.765624 4.667968-8.808593 8.535156-2.042969 3.867187-2.785157 8.160156-2.085938 12.085937.746094 4.203125 3.023438 7.507813 6.414063 9.296875 1.71875.90625 3.589844 1.359375 5.53125 1.359375 1.890625 0 3.84375-.429687 5.769531-1.296875 3.636719-1.636718 6.765625-4.667968 8.808594-8.535156 2.042969-3.871094 2.78125-8.160156 2.082031-12.089844zm-7.386719 9.285156c-1.421875 2.695313-3.542969 4.777344-5.96875 5.871094-2.171875.972656-4.3125 1.011719-6.03125.101563-1.71875-.90625-2.894531-2.699219-3.3125-5.042969-.464843-2.617188.0625-5.542969 1.484375-8.234375s3.539063-4.777344 5.964844-5.867187c1.125-.503907 2.242188-.757813 3.300781-.757813.976563 0 1.902344.21875 2.730469.65625 1.71875.90625 2.894531 2.699219 3.308594 5.039063.46875 2.621093-.058594 5.542968-1.476563 8.234374zm0 0" fill="#3a312a"/><path d="m429.011719 84.652344c-3.617188-4.757813-11.496094-4.855469-17.601563-.214844-6.105468 4.640625-8.125 12.257812-4.511718 17.015625 3.617187 4.757813 11.496093 4.855469 17.605468.214844 6.105469-4.640625 8.125-12.257813 4.507813-17.015625zm0 0" fill="#87796f"/><path d="m431.398438 82.835938c-2.316407-3.050782-5.949219-4.761719-10.214844-4.816407-4-.058593-8.105469 1.382813-11.585938 4.03125-7.414062 5.632813-9.695312 15.152344-5.085937 21.21875 2.417969 3.179688 6.257812 4.792969 10.429687 4.792969 3.789063 0 7.851563-1.328125 11.375-4.003906 7.414063-5.636719 9.695313-15.152344 5.082032-21.222656zm-8.710938 16.445312c-4.699219 3.566406-10.835938 3.738281-13.398438.359375-2.566406-3.378906-.761718-9.242187 3.933594-12.8125 2.386719-1.8125 5.136719-2.808594 7.757813-2.808594h.128906c2.378906.03125 4.339844.898438 5.515625 2.449219 2.5625 3.371094.761719 9.242188-3.9375 12.8125zm0 0" fill="#3a312a"/><path d="m368.105469 6.964844c-5.140625 0-10.160157.5-15 1.460937 25.917969 5.140625 47.21875 23.339844 56.679687 47.417969 1.9375 1.863281 3.257813 4.382812 3.777344 7.382812.320312 1.820313.339844 3.738282.0625 5.617188.660156 3.339844 1.121094 6.78125 1.320312 10.261719 2.039063-.738281 4.140626-1.121094 6.238282-1.082031 4.261718.042968 7.902344 1.761718 10.21875 4.820312 4.601562 6.0625 2.320312 15.582031-5.078125 21.222656-3.441407 2.597656-7.460938 4.019532-11.398438 4.019532h-.203125c-1.179687-.019532-2.296875-.160157-3.359375-.421876-8.5 26.261719-30.777343 46.382813-58.257812 51.839844 4.839843.960938 9.859375 1.460938 15 1.460938 42.457031 0 77-34.539063 77-77 0-42.460938-34.542969-77-77-77zm0 0" fill="#decaad"/><path d="m384.34375 264.84375c-28.578125 61.863281-86.78125 118.542969-133.820312 154.0625-9.539063 7.21875-22.300782 17.820312-35.4375 24.019531 3.617187 1.199219 7.21875 1.917969 10.699218 2 .097656 0 .21875 0 .320313.019531.117187-.019531.21875-.019531.320312-.019531 15.839844-.320312 33.976563-14.320312 47.21875-24.539062 1.78125-1.363281 3.460938-2.679688 5.078125-3.882813 84.921875-64.117187 121.023438-128.019531 132.300782-151.660156zm0 0" fill="#d34e5c"/><path d="m420.722656 148.105469c-6.777344 5.578125-14.4375 10.078125-22.738281 13.28125 3.558594 14.398437 4.699219 29.5 3.261719 44.457031-1.101563 11.542969-3.621094 23.042969-7.28125 34.460938h26.839844c3.859374-11.820313 6.378906-23.5 7.460937-34.738282 0 0 0 0 0-.019531 1.878906-19.523437-.78125-39.363281-7.542969-57.441406zm0 0" fill="#d34e5c"/><path d="m391.945312 246.304688c-1.480468 4.199218-3.140624 8.378906-4.941406 12.539062h26.761719c1.859375-4.257812 3.539063-8.457031 5-12.539062zm0 0" fill="#b9c239"/><path d="m368.105469 6.964844c-5.140625 0-10.160157.5-15 1.460937 25.917969 5.140625 47.21875 23.339844 56.679687 47.417969 1.9375 1.863281 3.257813 4.382812 3.777344 7.382812.320312 1.820313.339844 3.738282.0625 5.617188.660156 3.339844 1.121094 6.78125 1.320312 10.261719 2.039063-.738281 4.140626-1.121094 6.238282-1.082031 4.261718.042968 7.902344 1.761718 10.21875 4.820312 4.601562 6.0625 2.320312 15.582031-5.078125 21.222656-3.441407 2.597656-7.460938 4.019532-11.398438 4.019532h-.203125c-1.179687-.019532-2.296875-.160157-3.359375-.421876-8.5 26.261719-30.777343 46.382813-58.257812 51.839844 4.839843.960938 9.859375 1.460938 15 1.460938 42.457031 0 77-34.539063 77-77 0-42.460938-34.542969-77-77-77zm0 0" fill="#decaad"/></svg>