<svg height="452pt" viewBox="0 0 452.7555 452" width="452pt" xmlns="http://www.w3.org/2000/svg"><path d="m133.472656 22.734375c-1.949218 23.125-26.050781 26.777344-26.050781 26.777344 20.695313.976562 25.851563 28.117187 25.851563 28.117187.441406-19.351562 26.640624-28.402344 26.640624-28.402344-19.625-1.175781-26.441406-26.492187-26.441406-26.492187zm0 0" fill="#d7e057"/><path d="m160.09375 46.230469c-17.207031-1.03125-23.664062-24.050781-23.722656-24.28125-.382813-1.40625-1.710938-2.324219-3.167969-2.203125-1.453125.128906-2.597656 1.28125-2.71875 2.734375-1.722656 20.429687-22.625 23.925781-23.507813 24.0625-1.527343.230469-2.628906 1.582031-2.546874 3.125.078124 1.539062 1.3125 2.765625 2.855468 2.839843 18.054688.851563 22.996094 25.4375 23.042969 25.683594.273437 1.421875 1.519531 2.433594 2.945313 2.433594.085937 0 .167968 0 .253906-.007812 1.527344-.128907 2.710937-1.386719 2.75-2.921876.382812-17.015624 24.378906-25.554687 24.625-25.636718 1.351562-.46875 2.183594-1.828125 1.988281-3.246094s-1.367187-2.496094-2.796875-2.582031zm-27.128906 20.691406c-2.714844-6.261719-7.417969-13.8125-15.175782-17.753906 5.863282-2.808594 12.820313-7.824219 16.40625-16.546875 3.101563 6.144531 8.394532 13.761718 16.667969 17.449218-6.019531 3.277344-13.847656 8.804688-17.898437 16.851563zm0 0" fill="#3a312a"/><path d="m90.074219 56.691406c-1.375 16.359375-18.421875 18.941406-18.421875 18.941406 14.636718.6875 18.28125 19.886719 18.28125 19.886719.3125-13.6875 18.847656-20.089843 18.847656-20.089843-13.882812-.828126-18.707031-18.738282-18.707031-18.738282zm0 0" fill="#d7e057"/><path d="m108.960938 72.4375c-11.535157-.691406-15.949219-16.371094-15.992188-16.53125-.378906-1.402344-1.722656-2.328125-3.160156-2.203125-1.453125.128906-2.601563 1.285156-2.722656 2.734375-1.15625 13.742188-15.292969 16.136719-15.882813 16.230469-1.527344.230469-2.625 1.578125-2.546875 3.117187.082031 1.542969 1.316406 2.769532 2.855469 2.84375 12.070312.566406 15.449219 17.289063 15.476562 17.453125.273438 1.425781 1.519531 2.4375 2.945313 2.4375.082031 0 .167968 0 .25-.007812 1.53125-.128907 2.71875-1.390625 2.753906-2.921875.261719-11.417969 16.664062-17.269532 16.824219-17.324219 1.355469-.46875 2.1875-1.828125 1.992187-3.246094-.195312-1.414062-1.367187-2.496093-2.792968-2.582031zm-19.171876 13.589844c-1.847656-3.773438-4.679687-7.894532-8.894531-10.5625 3.710938-2.082032 7.394531-5.257813 9.742188-9.832032 2.113281 3.746094 5.308593 7.910157 9.878906 10.449219-3.695313 2.199219-7.972656 5.480469-10.726563 9.945313zm0 0" fill="#3a312a"/><path d="m90.074219 3.378906c-1.375 16.359375-18.421875 18.941406-18.421875 18.941406 14.636718.6875 18.28125 19.886719 18.28125 19.886719.3125-13.6875 18.847656-20.089843 18.847656-20.089843-13.882812-.832032-18.707031-18.738282-18.707031-18.738282zm0 0" fill="#d7e057"/><path d="m108.960938 19.121094c-11.535157-.6875-15.949219-16.371094-15.992188-16.527344-.378906-1.40625-1.722656-2.328125-3.160156-2.207031-1.453125.132812-2.601563 1.289062-2.722656 2.738281-1.15625 13.742188-15.292969 16.132812-15.882813 16.226562-1.527344.230469-2.625 1.582032-2.546875 3.121094.082031 1.539063 1.316406 2.769532 2.855469 2.84375 12.070312.566406 15.449219 17.285156 15.476562 17.449219.273438 1.425781 1.519531 2.441406 2.945313 2.441406.082031 0 .167968-.003906.25-.011719 1.53125-.125 2.71875-1.386718 2.753906-2.921874.261719-11.417969 16.664062-17.265626 16.824219-17.324219 1.355469-.464844 2.1875-1.824219 1.992187-3.242188-.195312-1.417969-1.367187-2.5-2.792968-2.585937zm-19.171876 13.589844c-1.847656-3.769532-4.679687-7.894532-8.894531-10.558594 3.710938-2.082032 7.394531-5.261719 9.742188-9.832032 2.113281 3.746094 5.308593 7.90625 9.882812 10.445313-3.699219 2.203125-7.976562 5.484375-10.730469 9.945313zm0 0" fill="#3a312a"/><path d="m136.6875 326.628906-22.21875 10.300782 15.238281 32.878906c6.480469-5.621094 14.199219-9.058594 22.199219-10.300782zm0 0" fill="#87796f"/><path d="m154.628906 358.25-15.21875-32.882812c-.332031-.71875-.941406-1.28125-1.6875-1.554688-.746094-.277344-1.574218-.242188-2.296875.09375l-22.21875 10.300781c-1.503906.695313-2.15625 2.480469-1.460937 3.984375l15.242187 32.878906c.394531.855469 1.171875 1.472657 2.09375 1.671876.207031.046874.417969.066406.628907.066406.710937 0 1.414062-.257813 1.960937-.734375 5.875-5.09375 13.03125-8.410157 20.695313-9.601563.933593-.144531 1.742187-.71875 2.1875-1.546875.441406-.832031.472656-1.824219.074218-2.675781zm-23.804687 6.835938-12.371094-26.699219 16.773437-7.773438 12.355469 26.695313c-6.042969 1.460937-11.734375 4.101562-16.757812 7.777344zm0 0" fill="#3a312a"/><path d="m190.164062 371.703125c-17.660156-17.269531-45.980468-16.953125-63.25.707031-17.269531 17.660156-16.953124 45.976563.707032 63.25 17.664062 17.273438 45.980468 16.957032 63.25-.707031 17.273437-17.660156 16.957031-45.976563-.707032-63.25zm-14.046874 48.820313c-9.300782 9.507812-24.550782 9.679687-34.0625.378906-9.511719-9.300782-9.683594-24.550782-.382813-34.0625 9.300781-9.507813 24.550781-9.679688 34.0625-.378906 9.511719 9.300781 9.679687 24.550781.382813 34.0625zm0 0" fill="#f16c7a" fill-rule="evenodd"/><path d="m192.261719 369.5625c-18.816407-18.402344-49.09375-18.0625-67.488281.75-8.914063 9.117188-13.746094 21.15625-13.605469 33.902344.144531 12.746094 5.242187 24.675781 14.359375 33.589844 8.980468 8.785156 20.804687 13.605468 33.351562 13.605468.183594 0 .367188 0 .546875-.003906 12.75-.140625 24.675781-5.238281 33.589844-14.355469 18.402344-18.8125 18.0625-49.09375-.753906-67.488281zm-3.53125 63.292969c-7.792969 7.96875-18.222657 12.425781-29.371094 12.550781-.15625.003906-.316406.003906-.476563.003906-10.96875 0-21.308593-4.214844-29.160156-11.894531-7.96875-7.792969-12.429687-18.222656-12.550781-29.367187-.125-11.144532 4.097656-21.671876 11.890625-29.640626 8.160156-8.34375 18.992188-12.535156 29.835938-12.535156 10.53125 0 21.066406 3.953125 29.171874 11.875 16.445313 16.085938 16.746094 42.558594.660157 59.007813zm-30.140625-56.257813c-7.230469.082032-14.003906 2.976563-19.058594 8.148438-5.058594 5.171875-7.800781 12.003906-7.71875 19.238281.078125 7.234375 2.972656 14.007813 8.144531 19.0625 5.097657 4.988281 11.808594 7.722656 18.929688 7.722656h.3125c7.230469-.082031 14.003906-2.976562 19.058593-8.148437 5.058594-5.171875 7.800782-12.007813 7.71875-19.242188-.078124-7.230468-2.972656-14.003906-8.144531-19.058594-5.171875-5.0625-12.074219-7.804687-19.242187-7.722656zm15.382812 41.828125c-3.9375 4.027344-9.210937 6.277344-14.84375 6.339844-5.6875.078125-10.953125-2.070313-14.976562-6.007813-4.027344-3.9375-6.277344-9.210937-6.34375-14.839843-.0625-5.632813 2.074218-10.953125 6.011718-14.976563 3.9375-4.027344 9.207032-6.28125 14.839844-6.34375h.242188c5.542968 0 10.765625 2.128906 14.734375 6.007813 4.027343 3.9375 6.28125 9.210937 6.34375 14.839843.0625 5.636719-2.070313 10.953126-6.007813 14.980469zm0 0" fill="#3a312a"/><path d="m41.925781 92.390625c-13.753906 6.371094-20.367187 22.183594-15.253906 36.449219l19.082031 53.226562 10.039063 27.988282 47.363281 132.113281 44.855469-20.78125zm0 0" fill="#8ac6dd"/><path d="m150.734375 320.125-106.085937-228.996094c-.699219-1.503906-2.484376-2.164062-3.984376-1.460937-15.265624 7.070312-22.496093 24.347656-16.816406 40.183593l19.082032 53.226563c.558593 1.554687 2.277343 2.367187 3.835937 1.808594 1.5625-.558594 2.375-2.277344 1.8125-3.835938l-19.082031-53.226562c-4.28125-11.9375.449218-24.878907 11.039062-31.300781l103.492188 223.402343-39.15625 18.140625-46.257813-129.023437c-.558593-1.558594-2.28125-2.371094-3.835937-1.808594-1.558594.558594-2.371094 2.277344-1.8125 3.835937l47.367187 132.109376c.285157.792968.886719 1.429687 1.664063 1.753906.375.15625.765625.234375 1.160156.234375.429688 0 .859375-.09375 1.261719-.28125l44.855469-20.777344c1.5-.695313 2.152343-2.480469 1.460937-3.984375zm0 0" fill="#3a312a"/><path d="m69.027344 326.929688-14.839844 33.039062c8 1.179688 15.761719 4.519531 22.300781 10.039062l14.859375-33.039062zm0 0" fill="#87796f"/><path d="m92.578125 334.234375-22.320313-10.042969c-.726562-.328125-1.550781-.347656-2.292968-.066406-.746094.285156-1.347656.847656-1.671875 1.574219l-14.839844 33.042969c-.386719.855468-.347656 1.84375.105469 2.667968.449218.824219 1.261718 1.390625 2.191406 1.527344 7.699219 1.136719 14.890625 4.375 20.804688 9.363281.542968.460938 1.234374.707031 1.933593.707031.222657 0 .445313-.023437.667969-.074218.917969-.210938 1.683594-.835938 2.070312-1.695313l14.859376-33.039062c.675781-1.511719.003906-3.285157-1.507813-3.964844zm-17.261719 31.070313c-5.058594-3.59375-10.773437-6.167969-16.835937-7.574219l12.054687-26.835938 16.847656 7.578125zm0 0" fill="#3a312a"/><path d="m79.324219 372.597656c-17.472657-17.464844-45.789063-17.457031-63.253907.011719-17.460937 17.472656-17.453124 45.792969.015626 63.253906 17.46875 17.464844 45.789062 17.457031 63.253906-.011719 17.464844-17.472656 17.457031-45.789062-.015625-63.253906zm-14.582031 48.660156c-9.40625 9.410157-24.65625 9.414063-34.066407.007813-9.40625-9.402344-9.410156-24.652344-.007812-34.0625 9.40625-9.410156 24.65625-9.414063 34.0625-.007813 9.410156 9.40625 9.414062 24.65625.011719 34.0625zm0 0" fill="#f16c7a" fill-rule="evenodd"/><path d="m47.707031 377.144531h-.007812c-7.234375.003907-14.039063 2.820313-19.148438 7.9375-5.117187 5.117188-7.933593 11.921875-7.929687 19.15625 0 7.234375 2.820312 14.035157 7.9375 19.152344 5.113281 5.113281 11.914062 7.929687 19.148437 7.929687h.003907c7.234374-.003906 14.039062-2.820312 19.152343-7.941406 5.113281-5.117187 7.929688-11.917968 7.929688-19.15625-.003907-7.230468-2.820313-14.035156-7.941407-19.148437-5.113281-5.113281-11.914062-7.929688-19.144531-7.929688zm14.914063 41.992188c-3.984375 3.984375-9.28125 6.179687-14.910156 6.183593h-.003907c-5.632812 0-10.925781-2.195312-14.90625-6.171874-3.984375-3.984376-6.179687-9.277344-6.179687-14.910157-.003906-5.632812 2.191406-10.925781 6.171875-14.910156s9.273437-6.179687 14.90625-6.179687h.007812c5.628907 0 10.921875 2.191406 14.90625 6.171874 8.222657 8.21875 8.222657 21.59375.007813 29.816407zm18.824218-48.664063c-18.613281-18.601562-48.890624-18.597656-67.496093.019532-18.605469 18.613281-18.597657 48.890624.015625 67.496093 9.304687 9.300781 21.523437 13.949219 33.742187 13.949219 12.222657 0 24.449219-4.65625 33.753907-13.964844 18.605468-18.613281 18.597656-48.890625-.015626-67.5zm-4.226562 63.257813c-16.265625 16.273437-42.738281 16.28125-59.011719.015625-16.273437-16.265625-16.28125-42.738282-.015625-59.011719 8.136719-8.140625 18.824219-12.207031 29.515625-12.207031 10.679688 0 21.363281 4.066406 29.496094 12.195312 16.273437 16.261719 16.28125 42.734375.015625 59.007813zm0 0" fill="#3a312a"/><path d="m161.121094 91.625-103.472656 230.191406 45.089843 20.269532 74.050781-214.1875c4.949219-14.324219-1.847656-30.058594-15.667968-36.273438zm0 0" fill="#8ac6dd"/><path d="m162.347656 88.886719c-.726562-.324219-1.550781-.347657-2.292968-.066407-.742188.28125-1.34375.847657-1.671876 1.578126l-103.46875 230.1875c-.679687 1.511718-.003906 3.285156 1.503907 3.964843l45.089843 20.269531c.390626.175782.8125.265626 1.230469.265626.40625 0 .8125-.082032 1.191407-.246094.773437-.335938 1.371093-.980469 1.644531-1.773438l74.046875-214.1875c5.5-15.898437-1.929688-33.09375-17.273438-39.992187zm11.605469 38.03125-72.976563 211.085937-39.359374-17.691406 100.941406-224.566406c10.660156 6.296875 15.535156 19.1875 11.394531 31.171875zm0 0" fill="#3a312a"/><path d="m114.191406 269.90625c-2.753906-5.941406-9.800781-8.527344-15.742187-5.773438-5.941407 2.75-8.523438 9.796876-5.773438 15.738282 2.753907 5.941406 9.800781 8.527344 15.738281 5.773437 5.941407-2.75 8.527344-9.796875 5.777344-15.738281zm0 0" fill="#f16c7a" fill-rule="evenodd"/><path d="m116.910156 268.648438c-3.441406-7.433594-12.285156-10.679688-19.722656-7.234376-7.433594 3.441407-10.679688 12.289063-7.234375 19.71875 2.511719 5.414063 7.890625 8.609376 13.503906 8.609376 2.085938 0 4.207031-.441407 6.21875-1.375 7.433594-3.441407 10.675781-12.289063 7.234375-19.71875zm-9.753906 14.273437c-4.421875 2.050781-9.703125.121094-11.757812-4.3125-2.050782-4.429687-.117188-9.703125 4.3125-11.753906 1.199218-.558594 2.460937-.820313 3.707031-.820313 3.34375 0 6.550781 1.902344 8.046875 5.132813 2.050781 4.429687.117187 9.703125-4.308594 11.753906zm0 0" fill="#3a312a"/><path d="m382 95.292969h-141.742188c-7.457031 0-13.5 6.042969-13.5 13.5s6.042969 13.5 13.5 13.5h99.910157c7.457031 0 13.5 6.042969 13.5 13.5s-6.042969 13.5-13.5 13.5h-99.910157c-7.457031 0-13.5 6.042969-13.5 13.5s6.042969 13.5 13.5 13.5h99.910157c7.457031 0 13.5 6.042969 13.5 13.5s-6.042969 13.5-13.5 13.5h-99.910157c-7.457031 0-13.5 6.042969-13.5 13.5s6.042969 13.5 13.5 13.5h99.910157c7.457031 0 13.5 6.042969 13.5 13.5s-6.042969 13.5-13.5 13.5h-99.910157c-7.457031 0-13.5 6.042969-13.5 13.5s6.042969 13.5 13.5 13.5h99.910157c7.457031 0 13.5 6.042969 13.5 13.5s-6.042969 13.5-13.5 13.5h-99.910157c-7.457031 0-13.5 6.042969-13.5 13.5s6.042969 13.5 13.5 13.5h99.910157c7.457031 0 13.5 6.042969 13.5 13.5s-6.042969 13.5-13.5 13.5h-99.910157c-7.457031 0-13.5 6.042969-13.5 13.5s6.042969 13.5 13.5 13.5h99.910157c7.457031 0 13.5 6.042969 13.5 13.5s-6.042969 13.5-13.5 13.5h-99.910157c-7.457031 0-13.5 6.042969-13.5 13.5s6.042969 13.5 13.5 13.5h141.742188c37.421875 0 67.757812-30.335938 67.757812-67.757813v-215.484375c0-37.421875-30.335937-67.757812-67.757812-67.757812zm0 0" fill="#87796f"/><path d="m381.996094 92.292969h-60.960938c-1.65625 0-3 1.339843-3 3 0 1.65625 1.34375 3 3 3h60.960938c35.710937 0 64.757812 29.050781 64.757812 64.757812v215.484375c0 35.707032-29.046875 64.757813-64.757812 64.757813h-141.742188c-5.789062 0-10.5-4.710938-10.5-10.5 0-5.789063 4.710938-10.5 10.5-10.5h99.914063c9.097656 0 16.5-7.402344 16.5-16.5 0-9.097657-7.402344-16.5-16.5-16.5h-99.914063c-5.789062 0-10.5-4.710938-10.5-10.5 0-5.789063 4.710938-10.5 10.5-10.5h99.914063c9.097656 0 16.5-7.402344 16.5-16.5 0-9.097657-7.402344-16.5-16.5-16.5h-99.914063c-5.789062 0-10.5-4.710938-10.5-10.5 0-5.789063 4.710938-10.5 10.5-10.5h99.914063c9.097656 0 16.5-7.402344 16.5-16.5 0-9.097657-7.402344-16.5-16.5-16.5h-99.914063c-5.789062 0-10.5-4.710938-10.5-10.5 0-5.789063 4.710938-10.5 10.5-10.5h99.914063c9.097656 0 16.5-7.402344 16.5-16.5 0-9.097657-7.402344-16.5-16.5-16.5h-99.914063c-5.789062 0-10.5-4.710938-10.5-10.5 0-5.789063 4.710938-10.5 10.5-10.5h99.914063c9.097656 0 16.5-7.402344 16.5-16.5 0-9.097657-7.402344-16.5-16.5-16.5h-99.914063c-5.789062 0-10.5-4.710938-10.5-10.5 0-5.789063 4.710938-10.5 10.5-10.5h99.914063c9.097656 0 16.5-7.402344 16.5-16.5 0-9.097657-7.402344-16.5-16.5-16.5h-99.914063c-5.789062 0-10.5-4.710938-10.5-10.5 0-5.789063 4.710938-10.5 10.5-10.5h52.226563c1.65625 0 3-1.34375 3-3 0-1.660157-1.34375-3-3-3h-52.226563c-9.097656 0-16.5 7.402343-16.5 16.5 0 9.097656 7.402344 16.5 16.5 16.5h99.914063c5.789062 0 10.5 4.710937 10.5 10.5 0 5.789062-4.710938 10.5-10.5 10.5h-99.914063c-9.097656 0-16.5 7.402343-16.5 16.5 0 9.097656 7.402344 16.5 16.5 16.5h99.914063c5.789062 0 10.5 4.710937 10.5 10.5 0 5.789062-4.710938 10.5-10.5 10.5h-99.914063c-9.097656 0-16.5 7.402343-16.5 16.5 0 9.097656 7.402344 16.5 16.5 16.5h99.914063c5.789062 0 10.5 4.710937 10.5 10.5 0 5.789062-4.710938 10.5-10.5 10.5h-99.914063c-9.097656 0-16.5 7.402343-16.5 16.5 0 9.097656 7.402344 16.5 16.5 16.5h99.914063c5.789062 0 10.5 4.710937 10.5 10.5 0 5.789062-4.710938 10.5-10.5 10.5h-99.914063c-9.097656 0-16.5 7.402343-16.5 16.5 0 9.097656 7.402344 16.5 16.5 16.5h99.914063c5.789062 0 10.5 4.710937 10.5 10.5 0 5.789062-4.710938 10.5-10.5 10.5h-99.914063c-9.097656 0-16.5 7.402343-16.5 16.5 0 9.097656 7.402344 16.5 16.5 16.5h99.914063c5.789062 0 10.5 4.710937 10.5 10.5 0 5.789062-4.710938 10.5-10.5 10.5h-99.914063c-9.097656 0-16.5 7.402343-16.5 16.5 0 9.097656 7.402344 16.5 16.5 16.5h141.742188c39.015625 0 70.757812-31.742188 70.757812-70.757813v-215.484375c0-39.015625-31.742187-70.757812-70.757812-70.757812zm0 0" fill="#3a312a"/><path d="m381.996094 98.292969h-30c35.703125 0 64.761718 29.039062 64.761718 64.757812v215.480469c0 35.722656-29.058593 64.761719-64.761718 64.761719h30c35.703125 0 64.761718-29.039063 64.761718-64.761719v-215.480469c0-35.71875-29.058593-64.757812-64.761718-64.757812zm0 0" fill="#695b51"/></svg>