<svg width="40" height="40" viewBox="0 0 40 40" fill="none" xmlns="http://www.w3.org/2000/svg">
<g id="ic:round-email">
<path id="Vector" d="M33.3335 6.66666H6.66683C4.8335 6.66666 3.35016 8.16666 3.35016 9.99999L3.3335 30C3.3335 31.8333 4.8335 33.3333 6.66683 33.3333H33.3335C35.1668 33.3333 36.6668 31.8333 36.6668 30V9.99999C36.6668 8.16666 35.1668 6.66666 33.3335 6.66666ZM32.6668 13.75L20.8835 21.1167C20.3502 21.45 19.6502 21.45 19.1168 21.1167L7.3335 13.75C7.16638 13.6562 7.02003 13.5294 6.90331 13.3774C6.78659 13.2254 6.70193 13.0513 6.65445 12.8656C6.60698 12.6799 6.59767 12.4865 6.62709 12.2972C6.65651 12.1078 6.72406 11.9263 6.82563 11.7638C6.92721 11.6013 7.0607 11.4611 7.21804 11.3516C7.37538 11.2422 7.55328 11.1658 7.74099 11.1272C7.9287 11.0885 8.1223 11.0883 8.31009 11.1266C8.49787 11.1649 8.67594 11.2409 8.8335 11.35L20.0002 18.3333L31.1668 11.35C31.3244 11.2409 31.5025 11.1649 31.6902 11.1266C31.878 11.0883 32.0716 11.0885 32.2593 11.1272C32.447 11.1658 32.6249 11.2422 32.7823 11.3516C32.9396 11.4611 33.0731 11.6013 33.1747 11.7638C33.2763 11.9263 33.3438 12.1078 33.3732 12.2972C33.4027 12.4865 33.3933 12.6799 33.3459 12.8656C33.2984 13.0513 33.2137 13.2254 33.097 13.3774C32.9803 13.5294 32.834 13.6562 32.6668 13.75Z" fill="#FFFEEF"/>
</g>
</svg>
