<svg width="40" height="40" viewBox="0 0 40 40" fill="none" xmlns="http://www.w3.org/2000/svg">
<g id="ri:instagram-fill">
<path id="Vector" d="M21.7135 3.33497C22.9297 3.3303 24.1459 3.34252 25.3618 3.37163L25.6852 3.3833C26.0585 3.39663 26.4268 3.4133 26.8718 3.4333C28.6451 3.51663 29.8552 3.79663 30.9168 4.2083C32.0168 4.63163 32.9435 5.20497 33.8702 6.13163C34.7174 6.96431 35.3732 7.97154 35.7918 9.0833C36.2035 10.145 36.4835 11.3566 36.5668 13.13C36.5868 13.5733 36.6035 13.9433 36.6168 14.3166L36.6268 14.64C36.6564 15.8553 36.6692 17.071 36.6652 18.2866L36.6668 19.53V21.7133C36.6709 22.9295 36.6581 24.1458 36.6285 25.3616L36.6185 25.685C36.6052 26.0583 36.5885 26.4266 36.5685 26.8716C36.4851 28.645 36.2018 29.855 35.7918 30.9166C35.3746 32.0296 34.7186 33.0376 33.8702 33.87C33.0368 34.7172 32.029 35.3729 30.9168 35.7916C29.8552 36.2033 28.6451 36.4833 26.8718 36.5666C26.4268 36.5866 26.0585 36.6033 25.6852 36.6166L25.3618 36.6266C24.1459 36.6563 22.9297 36.669 21.7135 36.665L20.4701 36.6666H18.2885C17.0723 36.6707 15.856 36.658 14.6401 36.6283L14.3168 36.6183C13.9212 36.604 13.5256 36.5873 13.1301 36.5683C11.3568 36.485 10.1468 36.2016 9.08348 35.7916C7.97129 35.3739 6.96388 34.718 6.13181 33.87C5.28356 33.0371 4.62719 32.0292 4.20848 30.9166C3.79681 29.855 3.51681 28.645 3.43348 26.8716C3.41492 26.4762 3.39825 26.0806 3.38348 25.685L3.37515 25.3616C3.34442 24.1458 3.33053 22.9295 3.33348 21.7133V18.2866C3.32883 17.071 3.34105 15.8553 3.37015 14.64L3.38181 14.3166C3.39515 13.9433 3.41181 13.5733 3.43181 13.13C3.51515 11.355 3.79515 10.1466 4.20681 9.0833C4.62577 7.971 5.28342 6.96404 6.13348 6.1333C6.96497 5.28455 7.97175 4.62759 9.08348 4.2083C10.1468 3.79663 11.3551 3.51663 13.1301 3.4333L14.3168 3.3833L14.6401 3.37497C15.8555 3.34426 17.0711 3.33036 18.2868 3.3333L21.7135 3.33497ZM20.0001 11.6683C18.896 11.6527 17.7997 11.8567 16.7751 12.2684C15.7505 12.6802 14.8179 13.2914 14.0316 14.0667C13.2452 14.842 12.6208 15.7659 12.1946 16.7846C11.7684 17.8033 11.549 18.8965 11.549 20.0008C11.549 21.1051 11.7684 22.1983 12.1946 23.217C12.6208 24.2357 13.2452 25.1596 14.0316 25.9349C14.8179 26.7102 15.7505 27.3214 16.7751 27.7332C17.7997 28.1449 18.896 28.3489 20.0001 28.3333C22.2103 28.3333 24.3299 27.4553 25.8927 25.8925C27.4555 24.3297 28.3335 22.2101 28.3335 20C28.3335 17.7898 27.4555 15.6702 25.8927 14.1074C24.3299 12.5446 22.2103 11.6683 20.0001 11.6683ZM20.0001 15.0016C20.6643 14.9894 21.3243 15.1096 21.9415 15.3553C22.5587 15.601 23.1207 15.9672 23.5948 16.4325C24.0688 16.8979 24.4454 17.453 24.7026 18.0655C24.9597 18.6781 25.0921 19.3357 25.0923 20C25.0924 20.6642 24.9601 21.3219 24.7032 21.9345C24.4463 22.5471 24.0699 23.1024 23.596 23.5679C23.1221 24.0334 22.5601 24.3998 21.943 24.6456C21.3259 24.8915 20.666 25.012 20.0018 25C18.6757 25 17.404 24.4732 16.4663 23.5355C15.5286 22.5978 15.0018 21.3261 15.0018 20C15.0018 18.6739 15.5286 17.4021 16.4663 16.4644C17.404 15.5268 18.6757 15 20.0018 15L20.0001 15.0016ZM28.7501 9.1683C28.2125 9.18982 27.704 9.41855 27.3312 9.80659C26.9583 10.1946 26.7501 10.7119 26.7501 11.25C26.7501 11.7881 26.9583 12.3053 27.3312 12.6933C27.704 13.0814 28.2125 13.3101 28.7501 13.3316C29.3027 13.3316 29.8326 13.1121 30.2233 12.7214C30.614 12.3307 30.8335 11.8008 30.8335 11.2483C30.8335 10.6958 30.614 10.1659 30.2233 9.77516C29.8326 9.38446 29.3027 9.16497 28.7501 9.16497V9.1683Z" fill="#FFFEEF"/>
</g>
</svg>
